<svg width="683" height="600" viewBox="0 0 683 600" fill="none" xmlns="http://www.w3.org/2000/svg">
<path d="M641.333 240H481.333V0H201.333V240H41.3333V480H0V520H81.3333V560H0V600H682.667V560H601.333V520H682.667V480H641.333V240ZM481.333 280H521.333V320H481.333V280ZM321.333 40H361.333V80H321.333V40ZM241.333 40H281.333V120H401.333V40H441.333V240C433.766 240 250.823 240 241.333 240V40ZM401.333 520V560H281.333V520H401.333ZM321.333 480V280H361.333V480H321.333ZM161.333 280H201.333V320H161.333V280ZM81.3333 280H121.333V360H241.333V280H281.333V480H81.3333V280ZM121.333 520H241.333V560H121.333V520ZM561.333 560H441.333V520H561.333V560ZM401.333 480V280H441.333V360H561.333V280H601.333V480H401.333Z" fill="#00FF00"/>
</svg>
