<svg width="683" height="560" viewBox="0 0 683 560" fill="none" xmlns="http://www.w3.org/2000/svg">
<path d="M402.667 120V320H360C360 306.266 360 17.4635 360 0C340.563 0 19.4219 0 0 0V480H80C80 524.115 115.885 560 160 560C204.115 560 240 524.115 240 480H442.667C442.667 524.115 478.552 560 522.667 560C566.781 560 602.667 524.115 602.667 480H682.667V215.281L635.026 120H402.667ZM482.667 160V240H442.667V160H482.667ZM225.813 160L320 58.4063V160H225.813ZM282.521 200L200 289.01V200H282.521ZM160 160H65.8125L160 58.4063V160ZM40 200H122.521L40 289.01V200ZM160 218.406V320H65.8125L160 218.406ZM320 218.406V320H225.813L320 218.406ZM282.521 40L200 129.01V40H282.521ZM122.521 40L40 129.01V40H122.521ZM160 520C137.943 520 120 502.057 120 480C120 457.943 137.943 440 160 440C182.057 440 200 457.943 200 480C200 502.057 182.057 520 160 520ZM229.24 440C215.38 416.115 189.547 400 160 400C130.453 400 104.62 416.115 90.7604 440H40V360H402.667V440H229.24ZM522.667 520C500.609 520 482.667 502.057 482.667 480C482.667 457.943 500.609 440 522.667 440C544.724 440 562.667 457.943 562.667 480C562.667 502.057 544.724 520 522.667 520ZM591.906 440C578.047 416.115 552.214 400 522.667 400C493.12 400 467.286 416.115 453.427 440H442.667V280H494.38L534.38 320H642.667V360H602.667V400H642.667V440C625.271 440 609.635 440 591.906 440ZM642.667 280H550.953L522.667 251.714V160H610.307L642.667 224.719V280Z" fill="#00FF00"/>
</svg>
