<svg width="682" height="683" viewBox="0 0 682 683" fill="none" xmlns="http://www.w3.org/2000/svg">
<path d="M421.958 0C278.661 0 162.078 116.583 162.078 259.88C162.078 309.865 176.276 356.583 200.828 396.25L0 597.859L84.8073 682.667L285.646 481.047C325.302 505.578 372 519.76 421.958 519.76C565.255 519.76 681.839 403.182 681.839 259.88C681.839 116.583 565.26 0 421.958 0V0ZM84.7552 626.068L56.4896 597.802L88.1302 566.042L116.396 594.307L84.7552 626.068ZM144.609 565.979L116.344 537.714L224.724 428.911C233.411 439.036 242.865 448.484 252.995 457.172L144.609 565.979ZM421.958 479.781C300.708 479.781 202.057 381.135 202.057 259.88C202.057 138.63 300.708 39.9792 421.958 39.9792C543.214 39.9792 641.859 138.63 641.859 259.88C641.859 381.135 543.214 479.781 421.958 479.781Z" fill="#00FF00"/>
<path d="M421.958 79.9635C322.75 79.9635 242.042 160.677 242.042 259.88C242.042 359.089 322.75 439.797 421.958 439.797C521.167 439.797 601.875 359.089 601.875 259.88C601.875 160.677 521.167 79.9635 421.958 79.9635V79.9635ZM421.958 399.818C344.797 399.818 282.021 337.042 282.021 259.88C282.021 182.719 344.797 119.943 421.958 119.943C499.12 119.943 561.896 182.719 561.896 259.88C561.896 337.042 499.12 399.818 421.958 399.818Z" fill="#00FF00"/>
<path d="M401.969 291.583L356.13 245.745L327.859 274.016L401.969 348.125L516.057 234.036L487.786 205.766L401.969 291.583Z" fill="#00FF00"/>
</svg>
